# xmcd CD database file generated by Grip 2.96
# 
# Track frame offsets:
#       150
#       12040
#       24837
#       37360
#       57442
#       75762
#       89080
#       107352
#       122190
#       137520
#       155497
#       171542
#       188182
#       204385
#       217297
#       229052
#       240500
#       252837
#       263840
#       279542
# 
# Disc length: 3992 seconds
# 
# Revision: 0
# Processed by: cddbd v1.4PL0 Copyright (c) Steve Scherf et al.
# Submitted via: Grip 2.96
# 
DISCID=160f9614
DTITLE=John Lee Hooker - Testament - One Way Ticket
DYEAR=1900
DGENRE=
TTITLE0=Boogie Chillun
TTITLE1=Hobo Blues
TTITLE2=Crawlin' kingsnake
TTITLE3=Nightmare
TTITLE4=House rent boogie
TTITLE5=Drive me away
TTITLE6=Sally Mae
TTITLE7=Moanin' blues
TTITLE8=Tupelo (live)
TTITLE9=Wednesday evening blues
TTITLE10=Dirty ground hog
TTITLE11=Five long years
TTITLE12=My first wife left me
TTITLE13=I can't believe
TTITLE14=Solid sender
TTITLE15=Sunny land
TTITLE16=I'm a stranger
TTITLE17=No shoes
TTITLE18=One way ticket
TTITLE19=Half a stranger
EXTD=
EXTT0=
EXTT1=
EXTT2=
EXTT3=
EXTT4=
EXTT5=
EXTT6=
EXTT7=
EXTT8=
EXTT9=
EXTT10=
EXTT11=
EXTT12=
EXTT13=
EXTT14=
EXTT15=
EXTT16=
EXTT17=
EXTT18=
EXTT19=
PLAYORDER=
